#!OML:ASF F:\VICON\USERDATA\INSTALL\rory3\rory3.ASF
:FULLY-SPECIFIED
:DEGREES
730
root 5.0482 16.5262 2.01466 5.66546 -13.5622 -6.79495
lowerback 20.6362 -0.870464 4.16726
upperback 4.40394 -0.187383 1.4005
thorax -6.74972 -0.172944 -0.812721
lowerneck -14.0633 -0.346554 -2.19184
upperneck 36.7919 0.424253 -1.25223
head 15.2158 -0.372907 -0.0866903
rclavicle 1.00386e-014 -2.0276e-014
rhumerus -36.9221 -0.220067 -8.20849
rradius 28.6349
rwrist 10.684
rhand -22.0893 -52.5648
rfingers 7.12502
rthumb 4.32255 -82.5007
lclavicle 1.00386e-014 -2.0276e-014
lhumerus -33.9446 -1.35611 1.88983
lradius 23.3733
lwrist 10.9953
lhand -24.9308 -32.1948
lfingers 7.12502
lthumb 1.57837 -2.22091
rfemur -102.767 0.372938 27.5834
rtibia 99.5778
rfoot 49.6501 4.69162
rtoes -1.63189
lfemur -30.6793 3.24651 -23.7412
ltibia 49.8076
lfoot -21.8583 9.63702
ltoes 15.511
731
root 5.04634 16.5245 2.01117 5.70296 -13.5995 -6.9274
lowerback 20.6271 -0.849989 4.26334
upperback 4.4117 -0.139374 1.42826
thorax -6.73418 -0.151074 -0.849908
lowerneck -14.0087 -0.336761 -2.22892
upperneck 36.7755 0.436738 -1.22005
head 15.1947 -0.367843 -0.0641646
rclavicle 1.81888e-014 1.27222e-014
rhumerus -36.9682 -0.291863 -8.20621
rradius 28.601
rwrist 10.5722
rhand -22.0074 -52.5174
rfingers 7.12502
rthumb 4.40166 -82.4517
lclavicle 1.81888e-014 1.27222e-014
lhumerus -33.896 -1.32101 1.90189
lradius 23.4028
lwrist 10.9711
lhand -24.9447 -31.9647
lfingers 7.12502
lthumb 1.56497 -1.99067
rfemur -102.733 0.514214 27.6745
rtibia 99.5289
rfoot 49.659 5.2155
rtoes -2.45792
lfemur -30.7542 3.23057 -23.5831
ltibia 49.8876
lfoot -21.8447 9.65429
ltoes 15.8346
732
root 5.04485 16.5267 2.01825 5.66775 -13.6616 -7.0042
lowerback 20.5265 -0.830387 4.32547
upperback 4.45704 -0.108409 1.43337
thorax -6.63018 -0.135063 -0.888654
lowerneck -13.954 -0.349313 -2.21965
upperneck 36.7863 0.432105 -1.27058
head 15.1875 -0.375499 -0.087833
rclavicle 1.98785e-014 -1.11319e-014
rhumerus -37.0174 -0.338159 -8.22504
rradius 28.6067
rwrist 10.5767
rhand -22.2328 -52.2765
rfingers 7.12502
rthumb 4.18398 -82.2152
lclavicle 1.98785e-014 -1.11319e-014
lhumerus -33.9381 -1.28434 1.87446
lradius 23.4679
lwrist 10.8566
lhand -24.9566 -32.238
lfingers 7.12502
lthumb 1.55352 -2.2639
rfemur -102.619 0.615559 27.7249
rtibia 99.5147
rfoot 49.5373 5.36507
rtoes -2.95095
lfemur -30.6556 3.26559 -23.5003
ltibia 49.9289
lfoot -21.9191 9.67043
ltoes 15.7579
733
root 5.0438 16.5259 2.0206 5.65798 -13.654 -6.99131
lowerback 20.5642 -0.832721 4.28088
upperback 4.41899 -0.117205 1.4288
thorax -6.69197 -0.139942 -0.865488
lowerneck -13.9881 -0.367786 -2.15492
upperneck 36.8748 0.419358 -1.3597
head 15.2393 -0.385786 -0.139957
rclavicle -3.77691e-014 1.74931e-014
rhumerus -37.0749 -0.286207 -8.2714
rradius 28.5915
rwrist 10.5663
rhand -23.0497 -52.0632
rfingers 7.12502
rthumb 3.3951 -82.0159
lclavicle -3.77691e-014 1.74931e-014
lhumerus -33.9527 -1.38614 1.86174
lradius 23.4336
lwrist 10.8323
lhand -24.6304 -32.2663
lfingers 7.12502
lthumb 1.86853 -2.29476
rfemur -102.613 0.64195 27.686
rtibia 99.5133
rfoot 49.4109 5.56764
rtoes -3.50539
lfemur -30.6459 3.23261 -23.5085
ltibia 49.9463
lfoot -21.918 9.66548
ltoes 15.5238
734
root 5.04303 16.5224 2.01991 5.67896 -13.6429 -6.9391
lowerback 20.6119 -0.826022 4.20218
upperback 4.35161 -0.119525 1.42455
thorax -6.79075 -0.141872 -0.823993
lowerneck -14.0272 -0.381103 -2.08583
upperneck 36.9875 0.420833 -1.46801
head 15.3045 -0.39236 -0.199
rclavicle -3.07122e-014 -1.94809e-014
rhumerus -37.0982 -0.24593 -8.27433
rradius 28.5542
rwrist 10.5271
rhand -23.4118 -51.9814
rfingers 7.12502
rthumb 3.04545 -81.9394
lclavicle -3.07122e-014 -1.94809e-014
lhumerus -33.9491 -1.59318 1.91709
lradius 23.3892
lwrist 10.9903
lhand -24.1577 -31.861
lfingers 7.12502
lthumb 2.32503 -1.89388
rfemur -102.683 0.666111 27.6083
rtibia 99.5022
rfoot 49.4141 5.57174
rtoes -3.61884
lfemur -30.7023 3.15752 -23.5587
ltibia 49.9444
lfoot -21.9226 9.69309
ltoes 15.4586
735
root 5.04515 16.5253 2.02949 5.61863 -13.7058 -6.88537
lowerback 20.6021 -0.8184 4.17359
upperback 4.32787 -0.116466 1.40824
thorax -6.81137 -0.140528 -0.826058
lowerneck -13.9704 -0.366141 -2.06282
upperneck 37.0598 0.467078 -1.55592
head 15.3271 -0.383027 -0.233207
rclavicle 5.66536e-015 -3.45885e-014
rhumerus -37.0705 -0.186257 -8.25825
rradius 28.6366
rwrist 10.5421
rhand -22.9246 -52.1507
rfingers 7.12502
rthumb 3.51592 -82.1015
lclavicle 5.66536e-015 -3.45885e-014
lhumerus -34.0226 -1.70161 1.95265
lradius 23.4457
lwrist 11.027
lhand -23.9376 -31.6187
lfingers 7.12502
lthumb 2.53766 -1.654
rfemur -102.604 0.671274 27.5537
rtibia 99.5044
rfoot 49.4533 5.33252
rtoes -3.31541
lfemur -30.5769 3.10398 -23.6317
ltibia 49.9178
lfoot -22.0192 9.80391
ltoes 15.7787
736
root 5.04465 16.5274 2.03587 5.57384 -13.8669 -6.91598
lowerback 20.6395 -0.774891 4.14562
upperback 4.31819 -0.0633052 1.41351
thorax -6.83935 -0.115131 -0.817996
lowerneck -13.8872 -0.316575 -2.03304
upperneck 37.0613 0.551497 -1.61717
head 15.3085 -0.351896 -0.250157
rclavicle -4.87022e-015 7.15625e-015
rhumerus -37.0782 -0.145484 -8.26479
rradius 28.826
rwrist 10.6436
rhand -22.5742 -52.3498
rfingers 7.12502
rthumb 3.85432 -82.2947
lclavicle -4.87022e-015 7.15625e-015
lhumerus -34.0491 -1.74728 1.98132
lradius 23.4326
lwrist 10.9766
lhand -24.005 -31.4381
lfingers 7.12502
lthumb 2.47253 -1.4727
rfemur -102.476 0.844656 27.5693
rtibia 99.4615
rfoot 49.5491 5.1271
rtoes -3.13095
lfemur -30.4696 3.14113 -23.6039
ltibia 49.9048
lfoot -22.0518 9.97699
ltoes 15.63
737
root 5.04212 16.5258 2.0374 5.57441 -13.9471 -6.97831
lowerback 20.6381 -0.743938 4.14559
upperback 4.32969 -0.0224627 1.43176
thorax -6.82432 -0.0951324 -0.808958
lowerneck -13.8135 -0.272547 -2.00608
upperneck 37.0042 0.612315 -1.63446
head 15.263 -0.323834 -0.251298
rclavicle 5.26779e-015 1.11319e-014
rhumerus -37.1131 -0.222991 -8.24629
rradius 28.8899
rwrist 10.727
rhand -22.8019 -52.249
rfingers 7.12502
rthumb 3.63445 -82.1978
lclavicle 5.26779e-015 1.11319e-014
lhumerus -34.0392 -1.80228 2.0322
lradius 23.4238
lwrist 11.0631
lhand -24.0414 -30.9258
lfingers 7.12502
lthumb 2.43742 -0.959998
rfemur -102.433 0.998591 27.6108
rtibia 99.4275
rfoot 49.6332 5.31435
rtoes -3.13724
lfemur -30.4387 3.17086 -23.5344
ltibia 49.9103
lfoot -22.0347 10.0996
ltoes 15.1818
738
root 5.04161 16.5232 2.04139 5.55901 -13.9257 -7.00306
lowerback 20.5962 -0.752955 4.19765
upperback 4.34749 -0.0261746 1.43309
thorax -6.78277 -0.0969671 -0.836467
lowerneck -13.7201 -0.252557 -2.04793
upperneck 36.9324 0.629285 -1.5764
head 15.2053 -0.313056 -0.215523
rclavicle 2.11706e-014 2.10712e-014
rhumerus -37.1415 -0.256693 -8.24815
rradius 28.8887
rwrist 10.6356
rhand -23.366 -52.1179
rfingers 7.12502
rthumb 3.08961 -82.0753
lclavicle 2.11706e-014 2.10712e-014
lhumerus -34.083 -1.79266 2.04768
lradius 23.4912
lwrist 11.0893
lhand -24.0505 -30.7304
lfingers 7.12502
lthumb 2.42861 -0.764442
rfemur -102.415 0.995385 27.637
rtibia 99.423
rfoot 49.6675 5.53531
rtoes -3.054
lfemur -30.4051 3.13414 -23.5078
ltibia 49.9422
lfoot -22.0898 10.0876
ltoes 15.3667
739
root 5.0416 16.5219 2.04516 5.55446 -13.9593 -6.99711
lowerback 20.5485 -0.734829 4.21644
upperback 4.34549 -0.00231813 1.41873
thorax -6.7586 -0.0854601 -0.86907
lowerneck -13.623 -0.264742 -2.10916
upperneck 36.8852 0.601057 -1.51019
head 15.1588 -0.323246 -0.180696
rclavicle -2.93207e-014 1.43125e-014
rhumerus -37.1969 -0.174091 -8.29445
rradius 28.9261
rwrist 10.492
rhand -23.7566 -52.0606
rfingers 7.12502
rthumb 2.7124 -82.0231
lclavicle -2.93207e-014 1.43125e-014
lhumerus -34.0975 -1.68433 2.01934
lradius 23.533
lwrist 10.9111
lhand -24.231 -31.3078
lfingers 7.12502
lthumb 2.25423 -1.33998
rfemur -102.396 1.02965 27.6277
rtibia 99.3996
rfoot 49.6693 5.41509
rtoes -2.90962
lfemur -30.4182 3.13073 -23.5115
ltibia 49.986
lfoot -22.1417 10.0738
ltoes 15.5428
740
root 5.04115 16.5239 2.04703 5.5582 -14.0297 -7.0428
lowerback 20.5255 -0.706097 4.24919
upperback 4.3527 0.039699 1.41271
thorax -6.73649 -0.0654373 -0.905174
lowerneck -13.6715 -0.29987 -2.16094
upperneck 36.9083 0.52495 -1.3995
head 15.1808 -0.347853 -0.137795
rclavicle 9.64106e-015 -1.98785e-015
rhumerus -37.2359 -0.0756066 -8.37109
rradius 28.9481
rwrist 10.5222
rhand -23.5848 -52.0812
rfingers 7.12502
rthumb 2.87838 -82.0415
lclavicle 9.64106e-015 -1.98785e-015
lhumerus -34.0468 -1.53589 1.97149
lradius 23.5271
lwrist 10.7337
lhand -24.2784 -31.9524
lfingers 7.12502
lthumb 2.20844 -1.98408
rfemur -102.34 1.12485 27.6776
rtibia 99.3573
rfoot 49.6242 5.43866
rtoes -2.95748
lfemur -30.4315 3.19009 -23.4604
ltibia 50.0223
lfoot -22.1522 10.1038
ltoes 15.4428
741
root 5.03865 16.5262 2.04753 5.52575 -14.0845 -7.11193
lowerback 20.5782 -0.686013 4.27014
upperback 4.33998 0.0746422 1.42628
thorax -6.77656 -0.049804 -0.911169
lowerneck -13.6242 -0.310286 -2.19758
upperneck 36.8604 0.487333 -1.31737
head 15.1458 -0.356766 -0.10243
rclavicle 2.48481e-015 -3.57812e-015
rhumerus -37.2509 0.104711 -8.45901
rradius 28.856
rwrist 10.8034
rhand -23.436 -52.0182
rfingers 7.12502
rthumb 3.02207 -81.9766
lclavicle 2.48481e-015 -3.57812e-015
lhumerus -34.038 -1.58829 1.98356
lradius 23.5532
lwrist 10.734
lhand -24.0471 -31.7939
lfingers 7.12502
lthumb 2.43189 -1.82804
rfemur -102.248 1.23166 27.7463
rtibia 99.3226
rfoot 49.6814 5.50905
rtoes -2.551
lfemur -30.384 3.26245 -23.3741
ltibia 50.0423
lfoot -22.1402 10.0962
ltoes 15.4434
742
root 5.03558 16.526 2.04487 5.52679 -14.0486 -7.10809
lowerback 20.6509 -0.692569 4.2265
upperback 4.28285 0.064561 1.43725
thorax -6.8779 -0.05601 -0.871319
lowerneck -13.3723 -0.28084 -2.19304
upperneck 36.6916 0.531517 -1.35196
head 15.0048 -0.338971 -0.10854
rclavicle -2.39536e-014 1.31198e-014
rhumerus -37.2652 0.345466 -8.56281
rradius 28.7404
rwrist 10.9453
rhand -23.6142 -51.88
rfingers 7.12502
rthumb 2.84993 -81.8408
lclavicle -2.39536e-014 1.31198e-014
lhumerus -34.098 -1.81218 2.05633
lradius 23.629
lwrist 10.8332
lhand -23.9511 -31.3089
lfingers 7.12502
lthumb 2.52457 -1.34407
rfemur -102.266 1.23684 27.734
rtibia 99.3152
rfoot 49.8446 5.20296
rtoes -1.63801
lfemur -30.4103 3.23186 -23.3584
ltibia 50.0429
lfoot -22.0747 10.0489
ltoes 15.49
743
root 5.03476 16.5253 2.04459 5.55152 -13.9634 -7.03046
lowerback 20.6312 -0.724883 4.15476
upperback 4.27381 0.00563898 1.4211
thorax -6.88026 -0.0831442 -0.832694
lowerneck -13.2972 -0.263191 -2.23314
upperneck 36.6003 0.55517 -1.32286
head 14.943 -0.329026 -0.0845352
rclavicle -3.67752e-014 -8.74653e-015
rhumerus -37.2086 0.462954 -8.67724
rradius 28.7419
rwrist 10.8246
rhand -23.4802 -52.0932
rfingers 7.12502
rthumb 2.97932 -82.0521
lclavicle -3.67752e-014 -8.74653e-015
lhumerus -34.1402 -1.87577 2.09243
lradius 23.6468
lwrist 10.9501
lhand -24.1088 -31.4952
lfingers 7.12502
lthumb 2.37227 -1.52861
rfemur -102.354 1.13364 27.6791
rtibia 99.3291
rfoot 49.906 4.99367
rtoes -1.16041
lfemur -30.4633 3.14152 -23.4359
ltibia 50.038
lfoot -22.0531 10.002
ltoes 15.4936
